<svg  xmlns="http://www.w3.org/2000/svg" xmlns:xlink="http://www.w3.org/1999/xlink" width="43" height="44" viewBox="0 0 43 44" fill="none">
<path d="M21.2777 24.1855C25.3622 24.2859 29.2825 25.5051 32.6693 27.6385C26.5332 34.3164 17.8246 38.9467 8.95317 39.9471C7.08517 38.5727 5.44102 36.8933 4.08838 34.9788C10.6255 33.9224 16.5934 30.3583 20.723 24.9166L21.2777 24.1855Z" fill="#F5CB5C"/>
<path d="M39.1696 33.8038C35.3995 39.9339 28.7789 44 21.2414 44C18.5178 44 15.9138 43.4691 13.5208 42.5015C21.8113 40.5851 29.6156 35.8892 35.293 29.5659C36.7383 30.7955 38.0434 32.2152 39.1696 33.8038Z" fill="#F5CB5C"/>
<path d="M41.6845 20.5879L41.6887 20.5923L42.4755 21.412C42.4804 21.6074 42.4829 21.8034 42.4829 21.9999C42.4829 25.0528 41.8825 27.9606 40.7974 30.6032C36.0345 24.6588 28.968 21.0917 21.4139 20.8882C19.6534 17.7105 18.7566 14.1565 18.752 10.5845C27.3643 10.7578 35.5852 14.339 41.6845 20.5879Z" fill="#F0B719"/>
<path d="M19.002 7.28939C19.2526 5.66547 19.6917 4.06091 20.3221 2.51013L21.3426 0C31.079 0.0471243 39.2676 6.87875 41.7276 16.165C35.3787 10.6456 27.3609 7.50182 19.002 7.28939Z" fill="#F0B719"/>
<path d="M18.2181 22.8775C16.2468 25.4753 13.7962 27.5875 11.0454 29.1236C7.69379 20.7545 7.46683 11.5776 10.3646 3.09913C12.5991 1.71673 15.0993 0.747357 17.767 0.292725L17.3861 1.22958C14.5847 8.12028 15.0432 15.9271 18.5795 22.4015L18.2181 22.8775Z" fill="#FAE7B2"/>
<path d="M6.07209 6.59974C2.31602 10.568 0 16.0038 0 21.9999C0 25.5582 0.815631 28.9192 2.26383 31.8934C4.28989 31.6888 6.2649 31.2122 8.14201 30.4871C5.0512 22.8267 4.36527 14.5298 6.08422 6.58691L6.07209 6.59974Z" fill="#FAE7B2"/>
</svg>
