<?xml version="1.0" standalone="no"?>
<!DOCTYPE svg PUBLIC "-//W3C//DTD SVG 20010904//EN"
 "http://www.w3.org/TR/2001/REC-SVG-20010904/DTD/svg10.dtd">
<svg version="1.0" xmlns="http://www.w3.org/2000/svg"
 width="512.000000pt" height="512.000000pt" viewBox="0 0 512.000000 512.000000"
 preserveAspectRatio="xMidYMid meet">
<metadata>
Created by potrace 1.14, written by Peter Selinger 2001-2017
</metadata>
<g transform="translate(0.000000,512.000000) scale(0.100000,-0.100000)"
fill="#000000" stroke="none">
<path d="M2533 5098 c-54 -111 -196 -497 -209 -568 -3 -14 -11 -50 -19 -80 -8
-30 -16 -66 -18 -80 -3 -14 -8 -42 -12 -62 l-7 -38 63 -1 c35 0 78 -2 94 -3
17 -2 70 -6 118 -10 48 -4 96 -9 106 -11 10 -2 42 -6 72 -10 30 -3 61 -8 69
-10 8 -2 35 -7 60 -10 216 -30 572 -128 840 -232 160 -62 473 -217 616 -304
197 -119 390 -256 532 -377 35 -30 65 -52 68 -50 6 7 -45 166 -94 288 -162
410 -433 776 -777 1050 -177 140 -426 285 -630 365 -120 47 -322 104 -443 125
-151 26 -170 28 -305 35 -111 6 -113 6 -124 -17z"/>
<path d="M1960 5050 c-227 -57 -437 -141 -635 -254 l-60 -35 -33 -103 c-32
-100 -78 -268 -88 -318 -3 -14 -9 -41 -14 -60 -5 -19 -18 -87 -29 -150 -29
-162 -29 -162 -36 -226 -4 -33 -8 -69 -10 -82 -13 -82 -20 -241 -20 -467 0
-319 9 -442 56 -724 18 -107 41 -215 80 -376 23 -94 75 -260 122 -387 l49
-137 47 26 c177 103 372 253 532 413 137 137 161 164 243 269 l54 71 -62 133
c-54 112 -123 277 -131 312 -1 6 -5 17 -8 25 -26 64 -90 319 -103 408 -3 20
-9 62 -14 92 -25 150 -35 540 -17 695 38 326 97 554 232 888 10 23 -19 21
-155 -13z"/>
<path d="M704 4284 c-83 -97 -98 -116 -162 -205 -257 -357 -410 -761 -470
-1239 -16 -126 -7 -546 14 -665 47 -272 107 -482 193 -672 37 -81 43 -88 68
-87 33 0 128 11 163 19 14 3 41 8 60 11 94 15 404 106 424 125 5 5 0 32 -14
66 -31 81 -109 308 -125 368 -73 264 -90 337 -130 560 -17 98 -42 296 -52 425
-16 189 -7 770 12 865 2 11 7 45 10 76 3 31 7 65 9 75 2 11 6 40 10 65 8 57
13 83 31 183 9 44 14 81 12 83 -2 2 -26 -22 -53 -53z"/>
<path d="M2245 3880 c-6 -9 1 -196 10 -260 2 -14 6 -47 10 -75 3 -27 8 -59 10
-70 37 -205 98 -409 171 -575 30 -67 98 -201 104 -205 3 -2 43 -6 87 -9 181
-12 277 -25 448 -61 548 -114 1073 -399 1480 -802 84 -82 189 -197 219 -238 7
-10 18 -15 23 -12 10 7 98 259 106 307 3 14 12 52 21 85 8 33 22 103 30 155 8
52 17 111 20 130 3 19 9 113 12 207 l7 173 -124 122 c-320 315 -607 525 -974
713 -77 39 -169 84 -205 99 -36 16 -79 35 -97 42 -86 38 -432 152 -513 169 -8
2 -59 13 -114 25 -54 12 -108 23 -120 26 -11 2 -32 6 -46 9 -23 4 -75 12 -140
20 -14 2 -52 6 -85 10 -33 3 -80 8 -105 10 -118 13 -229 15 -235 5z"/>
<path d="M2533 2301 c-4 -3 -33 -40 -65 -81 -58 -77 -63 -84 -151 -184 -88
-102 -298 -302 -361 -345 -11 -9 -32 -26 -46 -39 -50 -47 -338 -232 -460 -295
-261 -136 -495 -220 -785 -282 -65 -14 -121 -28 -123 -30 -2 -2 17 -31 43 -65
129 -168 284 -326 439 -449 64 -50 84 -61 105 -57 14 4 44 8 66 11 506 59
1137 285 1635 585 89 53 360 233 394 261 6 5 29 23 51 40 177 136 306 250 477
423 l108 109 -48 30 c-65 42 -282 149 -372 185 -159 63 -314 109 -482 142 -26
5 -69 12 -95 16 -26 3 -50 8 -53 9 -3 2 -48 6 -100 10 -52 4 -112 8 -132 10
-20 1 -40 -1 -45 -4z"/>
<path d="M3995 1505 c-188 -190 -327 -312 -527 -462 -507 -381 -1051 -653
-1639 -817 -117 -33 -158 -43 -184 -45 -51 -5 275 -109 428 -137 180 -32 255
-39 462 -39 169 0 256 6 370 25 57 9 71 12 140 26 85 16 263 72 372 116 405
162 767 434 1033 778 19 25 37 47 40 50 16 14 120 177 120 186 0 35 -266 338
-388 441 l-57 49 -170 -171z"/>
</g>
</svg>
